<svg viewBox="0 0 437 59" xmlns="http://www.w3.org/2000/svg" id="logo">
    <g fill="#383a3f">
        <path d="M22.8207 4.98077C27.3374 4.98077 31.2597 5.72802 34.5877 7.22253C37.9157 8.67033 40.4831 10.772 42.2897 13.5275C44.0963 16.2363 44.9997 19.4354 44.9997 23.125C44.9997 26.8146 44.0963 30.0137 42.2897 32.7225C40.4831 35.4313 37.9157 37.533 34.5877 39.0275C31.2597 40.4753 27.3374 41.1992 22.8207 41.1992H14.1203V54.0192H0V4.98077H22.8207ZM21.965 30.2706C24.8651 30.2706 27.0521 29.6635 28.5259 28.4492C29.9998 27.1882 30.7367 25.4135 30.7367 23.125C30.7367 20.8365 29.9998 19.0618 28.5259 17.8008C27.0521 16.5398 24.8651 15.9093 21.965 15.9093H14.1203V30.2706H21.965Z"/>
        <path d="M51.8843 4.98077H66.0047V43.0206H89.8238V54.0192H51.8843V4.98077Z"/>
        <path d="M119.534 55C114.304 55 109.598 53.9258 105.414 51.7775C101.278 49.5824 98.0209 46.5467 95.6438 42.6703C93.2666 38.794 92.078 34.4038 92.078 29.5C92.078 24.5962 93.2666 20.206 95.6438 16.3297C98.0209 12.4533 101.278 9.44093 105.414 7.29258C109.598 5.09753 114.304 4 119.534 4C124.098 4 128.211 4.79396 131.872 6.38187C135.533 7.96978 138.575 10.2582 141 13.2473L132.014 21.2335C128.781 17.4038 124.859 15.489 120.247 15.489C117.537 15.489 115.113 16.0728 112.973 17.2404C110.881 18.408 109.241 20.0659 108.053 22.2143C106.912 24.3159 106.341 26.7445 106.341 29.5C106.341 32.2555 106.912 34.7074 108.053 36.8558C109.241 38.9574 110.881 40.592 112.973 41.7596C115.113 42.9272 117.537 43.511 120.247 43.511C124.859 43.511 128.781 41.5962 132.014 37.7665L141 45.7527C138.575 48.7418 135.533 51.0302 131.872 52.6181C128.211 54.206 124.098 55 119.534 55Z"/>
    </g>
    <path fill="#b94141" fill-rule="evenodd" clip-rule="evenodd" d="M319.198 45.3359C318.217 46.0612 317.001 46.6159 315.55 46.9999C314.142 47.3412 312.649 47.5119 311.07 47.5119C306.974 47.5119 303.796 46.4666 301.534 44.3759C299.316 42.2852 298.206 39.2132 298.206 35.1599V21.0159H292.894V13.3359H298.206V0H157V46C157 53.1797 162.82 59 170 59H437V14C437 6.26801 430.732 0 423 0H308.19V13.3359H316.766V21.0159H308.19V35.0319C308.19 36.4826 308.553 37.6132 309.278 38.4239C310.046 39.1919 311.113 39.5759 312.478 39.5759C314.057 39.5759 315.401 39.1492 316.51 38.2959L319.198 45.3359ZM189.128 12.0559C194.461 12.0559 198.557 13.3359 201.416 15.8959C204.275 18.4132 205.704 22.2319 205.704 27.3519V46.9999H196.36V42.7119C194.483 45.9119 190.984 47.5119 185.864 47.5119C183.219 47.5119 180.915 47.0639 178.952 46.1679C177.032 45.2719 175.56 44.0346 174.536 42.4559C173.512 40.8772 173 39.0852 173 37.0799C173 33.8799 174.195 31.3626 176.584 29.5279C179.016 27.6932 182.749 26.7759 187.784 26.7759H195.72C195.72 24.5999 195.059 22.9359 193.736 21.7839C192.413 20.5892 190.429 19.9919 187.784 19.9919C185.949 19.9919 184.136 20.2906 182.344 20.8879C180.595 21.4426 179.101 22.2106 177.864 23.1919L174.28 16.2159C176.157 14.8932 178.397 13.8692 181 13.1439C183.645 12.4186 186.355 12.0559 189.128 12.0559ZM188.36 40.7919C190.067 40.7919 191.581 40.4079 192.904 39.6399C194.227 38.8292 195.165 37.6559 195.72 36.1199V32.5999H188.872C184.776 32.5999 182.728 33.9439 182.728 36.6319C182.728 37.9119 183.219 38.9359 184.2 39.7039C185.224 40.4292 186.611 40.7919 188.36 40.7919ZM249.428 12.5679V46.9999H239.956V42.9039C238.633 44.3972 237.055 45.5492 235.22 46.3599C233.385 47.1279 231.401 47.5119 229.268 47.5119C224.745 47.5119 221.161 46.2106 218.516 43.6079C215.871 41.0052 214.548 37.1439 214.548 32.0239V12.5679H224.532V30.5519C224.532 36.0986 226.857 38.8719 231.508 38.8719C233.897 38.8719 235.817 38.1039 237.268 36.5679C238.719 34.9892 239.444 32.6639 239.444 29.5919V12.5679H249.428ZM265.398 45.2719C268.342 46.7652 271.648 47.5119 275.318 47.5119C278.944 47.5119 282.102 46.7439 284.79 45.2079C287.52 43.6719 289.504 41.5386 290.742 38.8079L282.998 34.5839C281.248 37.7412 278.667 39.3199 275.254 39.3199C272.651 39.3199 270.496 38.4666 268.79 36.7599C267.083 35.0532 266.23 32.7279 266.23 29.7839C266.23 26.8399 267.083 24.5146 268.79 22.8079C270.496 21.1012 272.651 20.2479 275.254 20.2479C278.624 20.2479 281.206 21.8266 282.998 24.9839L290.742 20.8239C289.504 18.0079 287.52 15.8532 284.79 14.3599C282.102 12.8239 278.944 12.0559 275.318 12.0559C271.648 12.0559 268.342 12.8239 265.398 14.3599C262.496 15.8532 260.214 17.9439 258.55 20.6319C256.928 23.3199 256.118 26.3706 256.118 29.7839C256.118 33.1972 256.928 36.2479 258.55 38.9359C260.214 41.6239 262.496 43.7359 265.398 45.2719ZM334.787 12.5679H324.803V58.9999H334.787V12.5679ZM360.437 47.5119C356.81 47.5119 353.546 46.7652 350.645 45.2719C347.786 43.7359 345.546 41.6239 343.925 38.9359C342.303 36.2479 341.493 33.1972 341.493 29.7839C341.493 26.3706 342.303 23.3199 343.925 20.6319C345.546 17.9439 347.786 15.8532 350.645 14.3599C353.546 12.8239 356.81 12.0559 360.437 12.0559C364.063 12.0559 367.306 12.8239 370.165 14.3599C373.023 15.8532 375.263 17.9439 376.885 20.6319C378.506 23.3199 379.317 26.3706 379.317 29.7839C379.317 33.1972 378.506 36.2479 376.885 38.9359C375.263 41.6239 373.023 43.7359 370.165 45.2719C367.306 46.7652 364.063 47.5119 360.437 47.5119ZM360.437 39.3199C362.997 39.3199 365.087 38.4666 366.709 36.7599C368.373 35.0106 369.205 32.6852 369.205 29.7839C369.205 26.8826 368.373 24.5786 366.709 22.8719C365.087 21.1226 362.997 20.2479 360.437 20.2479C357.877 20.2479 355.765 21.1226 354.101 22.8719C352.437 24.5786 351.605 26.8826 351.605 29.7839C351.605 32.6852 352.437 35.0106 354.101 36.7599C355.765 38.4666 357.877 39.3199 360.437 39.3199ZM417.222 15.8959C414.62 13.3359 411.185 12.0559 406.918 12.0559C404.572 12.0559 402.417 12.4612 400.454 13.2719C398.492 14.0399 396.849 15.1492 395.526 16.5999V12.5679H385.99V46.9999H395.974V29.9759C395.974 26.9039 396.721 24.5999 398.214 23.0639C399.708 21.4852 401.713 20.6959 404.23 20.6959C406.492 20.6959 408.22 21.3786 409.414 22.7439C410.609 24.0666 411.206 26.0932 411.206 28.8239V46.9999H421.19V27.2879C421.19 22.2532 419.868 18.4559 417.222 15.8959Z"/>
</svg>
